<svg width="100" height="100" viewBox="0 0 100 100" fill="none" xmlns="http://www.w3.org/2000/svg">
<g clip-path="url(#clip0_208_1693)">
<path d="M45.3 8.16884C44.8279 7.76099 44.442 7.26302 44.1649 6.70412C43.8878 6.14521 43.725 5.53661 43.6861 4.91398C43.6473 4.29136 43.7331 3.66724 43.9385 3.07819C44.1439 2.48915 44.4649 1.94704 44.8825 1.48364C45.3002 1.02023 45.8061 0.644854 46.3707 0.379504C46.9353 0.114155 47.5472 -0.0358287 48.1705 -0.061655C48.7938 -0.0874813 49.416 0.0113689 50.0006 0.229102C50.5852 0.446835 51.1204 0.779071 51.575 1.20634L67.2 15.2688C67.6874 15.7084 68.0771 16.2453 68.3439 16.845C68.6106 17.4447 68.7485 18.0937 68.7485 18.7501C68.7485 19.4064 68.6106 20.0554 68.3439 20.6551C68.0771 21.2548 67.6874 21.7918 67.2 22.2313L51.575 36.2938C50.6471 37.0955 49.4421 37.5016 48.2183 37.4252C46.9945 37.3488 45.8494 36.7959 45.0285 35.885C44.2075 34.9742 43.7762 33.7779 43.827 32.5528C43.8777 31.3276 44.4066 30.1712 45.3 29.3313L53.3625 22.0751C47.2536 21.3406 41.0724 22.6297 35.7664 25.7448C30.4603 28.8598 26.3221 33.6289 23.9862 39.3211C21.6502 45.0133 21.2453 51.3145 22.8335 57.2588C24.4217 63.2032 27.9154 68.4627 32.7791 72.2313C37.6429 75.9998 43.6082 78.0695 49.7609 78.1229C55.9135 78.1764 61.9139 76.2108 66.8424 72.5274C71.7709 68.844 75.3556 63.646 77.0469 57.7301C78.7382 51.8143 78.4429 45.507 76.2062 39.7751C75.9822 39.2014 75.8733 38.5891 75.8858 37.9734C75.8984 37.3576 76.0321 36.7503 76.2793 36.1862C76.5266 35.6221 76.8825 35.1122 77.3268 34.6856C77.7711 34.259 78.295 33.9242 78.8688 33.7001C79.4425 33.476 80.0547 33.3671 80.6705 33.3797C81.2863 33.3922 81.8936 33.5259 82.4577 33.7732C83.0218 34.0204 83.5317 34.3763 83.9582 34.8206C84.3848 35.2649 84.7197 35.7889 84.9437 36.3626C87.8591 43.8302 88.3046 52.0356 86.2149 59.775C84.1253 67.5144 79.6105 74.3804 73.3328 79.3659C67.0551 84.3515 59.345 87.194 51.3334 87.4766C43.3219 87.7593 35.4306 85.4671 28.8172 80.9363C22.2038 76.4055 17.2164 69.8747 14.5866 62.3018C11.9568 54.7289 11.823 46.5125 14.2048 38.858C16.5867 31.2035 21.3588 24.5137 27.8212 19.7701C34.2835 15.0264 42.096 12.4785 50.1125 12.5001L45.3 8.16884Z" fill="#8D99AE"/>
</g>
<defs>
<clipPath id="clip0_208_1693">
<rect width="100" height="100" fill="white"/>
</clipPath>
</defs>
</svg>
