<svg width="20" height="23" viewBox="0 0 20 23" fill="none" xmlns="http://www.w3.org/2000/svg">
<path d="M17.9 22.2174C18.4679 22.1861 19.0023 21.9383 19.3929 21.5249C19.7836 21.1115 20.0009 20.564 20 19.9952V10.6842C20.0009 10.0874 19.7698 9.5137 19.3556 9.08416M17.9 22.2174V20.9674H17.8586M17.9 22.2174H12.4445C11.8922 22.2174 11.4445 21.7697 11.4445 21.2174L11.4445 15.6111C11.4445 15.3164 11.3274 15.0338 11.119 14.8254C10.9107 14.6171 10.6281 14.5 10.3334 14.5H9.66675C9.37207 14.5 9.08946 14.6171 8.88108 14.8254C8.67271 15.0338 8.55565 15.3164 8.55565 15.6111L8.55565 21.2174C8.55565 21.7697 8.10793 22.2174 7.55565 22.2174H2.10011M17.9 22.2174L17.8313 20.9693C17.8404 20.9688 17.8495 20.9682 17.8586 20.9674M17.8586 20.9674C18.0968 20.9475 18.3198 20.8405 18.4844 20.6663C18.6553 20.4855 18.7504 20.2459 18.75 19.9971L18.75 19.9952L18.75 10.6842V10.6823C18.7504 10.4111 18.6459 10.1503 18.4584 9.95454M17.8586 20.9674H12.6945M18.4584 9.95454L18.4621 9.95835L19.3556 9.08416M18.4584 9.95454C18.4575 9.95365 18.4567 9.95276 18.4558 9.95188L19.3556 9.08416M18.4584 9.95454L10.0001 1.30982M19.3556 9.08416L10.7889 0.328663M10.7889 0.328663L10.0059 1.10528L10.1052 1.20229L10.0001 1.30982M10.7889 0.328663L10.0075 1.09325L10.0006 1.10004L10.0001 1.09955L9.99194 1.09161L9.21118 0.328663M10.7889 0.328663C10.6857 0.224521 10.5628 0.141861 10.4274 0.0854516C10.292 0.0290423 10.1467 0 10.0001 0C9.85338 0 9.70816 0.0290423 9.57276 0.0854516C9.43736 0.141861 9.31447 0.224521 9.21118 0.328663M10.0001 1.30982L1.53859 9.9689L1.53202 9.97562L1.532 9.9756C1.44131 10.067 1.36968 10.1755 1.32128 10.2949C1.27288 10.4142 1.24867 10.542 1.25006 10.6707L1.2502 10.6842H1.25013V19.9952V19.9971C1.24975 20.2459 1.34481 20.4855 1.51572 20.6663C1.68035 20.8405 1.90329 20.9475 2.14153 20.9674M10.0001 1.30982L9.90145 1.20891M9.21118 0.328663L0.644568 9.09527C0.437278 9.30423 0.273565 9.5523 0.162936 9.82505C0.0523073 10.0978 -0.00303306 10.3898 0.000128181 10.6842V19.9952C-0.000732728 20.564 0.216542 21.1115 0.607207 21.5249C0.997872 21.9383 1.53219 22.1861 2.10011 22.2174M9.21118 0.328663L9.99469 1.10578L9.89548 1.20286L9.90145 1.20891M2.10011 22.2174L2.16886 20.9693C2.15973 20.9688 2.15062 20.9682 2.14153 20.9674M2.10011 22.2174V20.9674H2.14153M12.6945 20.9674L12.6945 15.6111C12.6945 14.9849 12.4457 14.3843 12.0029 13.9416C11.5601 13.4988 10.9596 13.25 10.3334 13.25H9.66675C9.04055 13.25 8.44 13.4988 7.9972 13.9416C7.55441 14.3843 7.30565 14.9849 7.30565 15.6111L7.30565 20.9674M12.6945 20.9674H12.4445C12.5825 20.9674 12.6945 21.0793 12.6945 21.2174V20.9674ZM7.30565 20.9674H2.14153M7.30565 20.9674V21.2174C7.30565 21.0793 7.41757 20.9674 7.55565 20.9674H7.30565ZM9.90145 1.20891C9.91436 1.22193 9.92972 1.23226 9.94665 1.23932C9.96357 1.24637 9.98173 1.25 10.0001 1.25C10.0184 1.25 10.0366 1.24637 10.0535 1.23932C10.0704 1.23226 10.0858 1.22193 10.0987 1.20891L10.0001 1.1111L9.90145 1.20891Z" stroke="#2B2D42" stroke-width="2.5"/>
</svg>
