<svg width="22" height="19" viewBox="0 0 22 19" fill="none" xmlns="http://www.w3.org/2000/svg">
<path d="M1.3355 10.684H17.1746L12.3267 16.5068C12.2144 16.6419 12.1299 16.7977 12.0779 16.9654C12.0259 17.1331 12.0074 17.3094 12.0235 17.4843C12.0561 17.8375 12.2276 18.1632 12.5003 18.3899C12.773 18.6166 13.1247 18.7256 13.4778 18.6931C13.8309 18.6605 14.1567 18.489 14.3834 18.2163L21.0609 10.2032C21.1058 10.1395 21.146 10.0726 21.1811 10.0029C21.1811 9.93614 21.2479 9.89608 21.2746 9.8293C21.3351 9.67618 21.3668 9.51318 21.368 9.34852C21.3668 9.18387 21.3351 9.02087 21.2746 8.86774C21.2746 8.80097 21.2078 8.7609 21.1811 8.69413C21.146 8.62449 21.1058 8.55754 21.0609 8.4938L14.3834 0.480784C14.2578 0.330029 14.1006 0.208791 13.9228 0.125695C13.7451 0.0425986 13.5512 -0.000316076 13.355 2.55129e-06C13.043 -0.000607123 12.7406 0.10807 12.5003 0.307168C12.3651 0.419283 12.2533 0.556974 12.1714 0.712355C12.0894 0.867737 12.0389 1.03776 12.0228 1.21268C12.0067 1.3876 12.0252 1.56398 12.0774 1.73172C12.1295 1.89947 12.2142 2.05528 12.3267 2.19023L17.1746 8.01302H1.3355C0.981306 8.01302 0.641615 8.15372 0.39116 8.40418C0.140705 8.65464 0 8.99433 0 9.34852C0 9.70272 0.140705 10.0424 0.39116 10.2929C0.641615 10.5433 0.981306 10.684 1.3355 10.684Z" fill="#F6AA1C"/>
</svg>
