<svg width="22" height="23" viewBox="0 0 22 23" fill="none" xmlns="http://www.w3.org/2000/svg">
<path d="M21.6386 20.0122L17.4844 15.8702C18.8247 14.1627 19.552 12.054 19.5493 9.88327C19.5493 7.95004 18.976 6.06021 17.9019 4.45278C16.8279 2.84535 15.3013 1.59251 13.5152 0.852696C11.7291 0.112878 9.76379 -0.0806924 7.8677 0.296464C5.9716 0.67362 4.22993 1.60456 2.86293 2.97157C1.49592 4.33857 0.564977 6.08025 0.187821 7.97634C-0.189335 9.87243 0.00423516 11.8378 0.744053 13.6239C1.48387 15.4099 2.73671 16.9365 4.34414 18.0106C5.95157 19.0846 7.84139 19.6579 9.77463 19.6579C11.9454 19.6606 14.054 18.9333 15.7616 17.593L19.9036 21.7472C20.0172 21.8617 20.1523 21.9526 20.3012 22.0147C20.4501 22.0767 20.6098 22.1086 20.7711 22.1086C20.9324 22.1086 21.0921 22.0767 21.241 22.0147C21.3899 21.9526 21.525 21.8617 21.6386 21.7472C21.7531 21.6336 21.844 21.4985 21.906 21.3496C21.9681 21.2007 22 21.041 22 20.8797C22 20.7184 21.9681 20.5587 21.906 20.4098C21.844 20.261 21.7531 20.1258 21.6386 20.0122ZM2.44366 9.88327C2.44366 8.43334 2.87362 7.01598 3.67915 5.81041C4.48469 4.60483 5.62963 3.6652 6.96919 3.11034C8.30875 2.55548 9.78276 2.4103 11.2048 2.69317C12.6269 2.97603 13.9332 3.67424 14.9584 4.6995C15.9837 5.72475 16.6819 7.031 16.9647 8.45307C17.2476 9.87514 17.1024 11.3492 16.5476 12.6887C15.9927 14.0283 15.0531 15.1732 13.8475 15.9788C12.6419 16.7843 11.2246 17.2142 9.77463 17.2142C7.83034 17.2142 5.96568 16.4419 4.59085 15.0671C3.21603 13.6922 2.44366 11.8276 2.44366 9.88327Z" fill="#2B2D42"/>
</svg>
