<svg width="24" height="24" viewBox="0 0 24 24" fill="none" xmlns="http://www.w3.org/2000/svg">
<path d="M21.3005 21.9986C21.1205 21.9986 20.9405 21.9286 20.8105 21.7986L18.9505 19.9386C18.6805 19.6686 18.6805 19.2286 18.9505 18.9486C19.2205 18.6786 19.6605 18.6786 19.9405 18.9486L21.8005 20.8086C22.0705 21.0786 22.0705 21.5186 21.8005 21.7986C21.6605 21.9286 21.4805 21.9986 21.3005 21.9986Z" fill="#8D99AE"/>
<path fill-rule="evenodd" clip-rule="evenodd" d="M2 11.5C2 6.26 6.26 2 11.5 2C16.74 2 21 6.26 21 11.5C21 16.74 16.74 21 11.5 21C6.26 21 2 16.74 2 11.5ZM10.3391 12.45C10.6142 12.7858 11.0321 13 11.5 13C11.9679 13 12.3858 12.7858 12.6609 12.45C12.8728 12.1913 13 11.8605 13 11.5C13 10.6716 12.3284 10 11.5 10C10.6716 10 10 10.6716 10 11.5C10 11.8605 10.1272 12.1913 10.3391 12.45ZM8.13577 13.852C8.05197 14.0346 8 14.1217 8 14C8 13.9269 8.05048 13.8799 8.13577 13.852Z" fill="#8D99AE"/>
</svg>
