<svg width="8" height="7" viewBox="0 0 8 7" fill="none" xmlns="http://www.w3.org/2000/svg">
<path d="M4 6.94307C3.94736 6.94337 3.89519 6.93328 3.84646 6.91338C3.79773 6.89348 3.75341 6.86415 3.71604 6.82708L0.608454 3.7155C0.21865 3.32162 0 2.78985 0 2.2357C0 1.68154 0.21865 1.14977 0.608454 0.755895C1.00131 0.364151 1.53346 0.144165 2.08826 0.144165C2.64305 0.144165 3.17521 0.364151 3.56806 0.755895L4 1.18784L4.43194 0.755895C4.82479 0.364151 5.35695 0.144165 5.91174 0.144165C6.46654 0.144165 6.99869 0.364151 7.39155 0.755895C7.78135 1.14977 8 1.68154 8 2.2357C8 2.78985 7.78135 3.32162 7.39155 3.7155L4.28396 6.82708C4.24659 6.86415 4.20227 6.89348 4.15354 6.91338C4.10481 6.93328 4.05264 6.94337 4 6.94307ZM2.08826 0.943869C1.91895 0.943103 1.75117 0.975937 1.59464 1.04047C1.43812 1.105 1.29595 1.19995 1.17638 1.31982C0.934834 1.56264 0.799242 1.8912 0.799242 2.2337C0.799242 2.57619 0.934834 2.90476 1.17638 3.14757L4 5.9752L6.82362 3.14757C7.06517 2.90476 7.20076 2.57619 7.20076 2.2337C7.20076 1.8912 7.06517 1.56264 6.82362 1.31982C6.57712 1.08693 6.25086 0.957186 5.91174 0.957186C5.57263 0.957186 5.24637 1.08693 4.99987 1.31982L4.28396 2.03972C4.24678 2.07721 4.20255 2.10696 4.15381 2.12727C4.10507 2.14757 4.0528 2.15803 4 2.15803C3.9472 2.15803 3.89493 2.14757 3.84619 2.12727C3.79745 2.10696 3.75322 2.07721 3.71604 2.03972L3.00013 1.31982C2.88056 1.19995 2.73839 1.105 2.58187 1.04047C2.42534 0.975937 2.25756 0.943103 2.08826 0.943869Z" fill="#EDF2F4"/>
</svg>
