<svg width="12" height="11" viewBox="0 0 12 11" fill="none" xmlns="http://www.w3.org/2000/svg">
<path d="M5.99993 10.427C5.92474 10.4274 5.8502 10.413 5.78058 10.3846C5.71097 10.3562 5.64766 10.3143 5.59427 10.2613L1.15486 5.8162C0.598002 5.25352 0.285645 4.49384 0.285645 3.7022C0.285645 2.91055 0.598002 2.15087 1.15486 1.58819C1.71608 1.02856 2.4763 0.714294 3.26887 0.714294C4.06143 0.714294 4.82165 1.02856 5.38287 1.58819L5.99993 2.20525L6.61699 1.58819C7.17821 1.02856 7.93843 0.714294 8.73099 0.714294C9.52356 0.714294 10.2838 1.02856 10.845 1.58819C11.4019 2.15087 11.7142 2.91055 11.7142 3.7022C11.7142 4.49384 11.4019 5.25352 10.845 5.8162L6.40559 10.2613C6.3522 10.3143 6.28889 10.3562 6.21928 10.3846C6.14966 10.413 6.07512 10.4274 5.99993 10.427Z" fill="#2B2D42"/>
</svg>
