<svg width="400" height="400" viewBox="0 0 400 400" fill="none" xmlns="http://www.w3.org/2000/svg">
<rect width="400" height="400" fill="#EDF2F4"/>
<path fill-rule="evenodd" clip-rule="evenodd" d="M320 290C320 306.569 306.569 320 290 320H110C93.4315 320 80 306.569 80 290V110C80 93.4315 93.4315 80 110 80H290C306.569 80 320 93.4315 320 110V290ZM291.765 171.765C291.765 183.46 282.284 192.941 270.588 192.941C258.893 192.941 249.412 183.46 249.412 171.765C249.412 160.069 239.931 150.588 228.235 150.588C216.54 150.588 207.059 141.107 207.059 129.412C207.059 117.716 216.54 108.235 228.235 108.235H261.765C278.333 108.235 291.765 121.667 291.765 138.235V171.765ZM207.059 270.588C207.059 282.284 216.54 291.765 228.235 291.765H261.765C278.333 291.765 291.765 278.333 291.765 261.765V228.235C291.765 216.54 282.284 207.059 270.588 207.059C258.893 207.059 249.412 216.54 249.412 228.235C249.412 239.931 239.931 249.412 228.235 249.412C216.54 249.412 207.059 258.893 207.059 270.588ZM108.235 228.235C108.235 216.54 117.716 207.059 129.412 207.059C141.107 207.059 150.588 216.54 150.588 228.235C150.588 239.931 160.069 249.412 171.765 249.412C183.46 249.412 192.941 258.893 192.941 270.588C192.941 282.284 183.46 291.765 171.765 291.765H138.235C121.667 291.765 108.235 278.333 108.235 261.765V228.235ZM192.941 129.412C192.941 117.716 183.46 108.235 171.765 108.235H138.235C121.667 108.235 108.235 121.667 108.235 138.235V171.765C108.235 183.46 117.716 192.941 129.412 192.941C141.107 192.941 150.588 183.46 150.588 171.765C150.588 160.069 160.069 150.588 171.765 150.588C183.46 150.588 192.941 141.107 192.941 129.412Z" fill="#8D99AE"/>
</svg>
